<svg xmlns="http://www.w3.org/2000/svg" width="1200" height="720" viewBox="0 0 1200 720" role="img" aria-labelledby="title desc">
  <title>GoTime Mock UI - Routine Timeline</title>
  <desc>Neutral mock interface depicting a routine timeline with timers and streak indicators.</desc>
  <rect width="1200" height="720" fill="#FFFFFF" />
  <rect x="0" y="0" width="1200" height="720" fill="#F7F7F8" />

  <!-- Header -->
  <rect x="40" y="32" width="200" height="20" rx="10" fill="#3A7BD5" opacity="0.9" />
  <rect x="40" y="64" width="360" height="14" rx="7" fill="#D9DCE3" />

  <!-- Timeline -->
  <g transform="translate(40,140)">
    <rect x="0" y="40" width="1120" height="8" rx="4" fill="#E1E4EA" />
    <!-- ticks -->
    <g fill="#3A7BD5" opacity="0.6">
      <rect x="60" y="32" width="2" height="24" />
      <rect x="220" y="32" width="2" height="24" />
      <rect x="380" y="32" width="2" height="24" />
      <rect x="540" y="32" width="2" height="24" />
      <rect x="700" y="32" width="2" height="24" />
      <rect x="860" y="32" width="2" height="24" />
      <rect x="1020" y="32" width="2" height="24" />
    </g>
    <!-- events -->
    <g>
      <circle cx="140" cy="44" r="12" fill="#3A7BD5" opacity="0.85" />
      <circle cx="300" cy="44" r="12" fill="#3A7BD5" opacity="0.65" />
      <circle cx="460" cy="44" r="12" fill="#3A7BD5" opacity="0.85" />
      <circle cx="620" cy="44" r="12" fill="#3A7BD5" opacity="0.65" />
      <circle cx="780" cy="44" r="12" fill="#3A7BD5" opacity="0.85" />
      <circle cx="940" cy="44" r="12" fill="#3A7BD5" opacity="0.65" />
    </g>
  </g>

  <!-- Streak panel -->
  <g transform="translate(40,240)">
    <rect width="1120" height="360" rx="14" fill="#FFFFFF" stroke="#E1E4EA" />
    <rect x="16" y="16" width="220" height="16" rx="8" fill="#3A7BD5" opacity="0.8" />
    <!-- day tiles -->
    <g transform="translate(16,56)" fill="#E8EBF2">
      <!-- 7x4 grid -->
      <defs>
        <rect id="d" width="32" height="32" rx="8" />
      </defs>
      <g>
        <!-- row 1 -->
        <use href="#d" x="0" y="0" />
        <use href="#d" x="44" y="0" />
        <use href="#d" x="88" y="0" />
        <use href="#d" x="132" y="0" />
        <use href="#d" x="176" y="0" />
        <use href="#d" x="220" y="0" />
        <use href="#d" x="264" y="0" />
        <!-- row 2 -->
        <use href="#d" x="0" y="44" />
        <use href="#d" x="44" y="44" />
        <use href="#d" x="88" y="44" />
        <use href="#d" x="132" y="44" />
        <use href="#d" x="176" y="44" />
        <use href="#d" x="220" y="44" />
        <use href="#d" x="264" y="44" />
        <!-- row 3 -->
        <use href="#d" x="0" y="88" />
        <use href="#d" x="44" y="88" />
        <use href="#d" x="88" y="88" />
        <use href="#d" x="132" y="88" />
        <use href="#d" x="176" y="88" />
        <use href="#d" x="220" y="88" />
        <use href="#d" x="264" y="88" />
        <!-- row 4 -->
        <use href="#d" x="0" y="132" />
        <use href="#d" x="44" y="132" />
        <use href="#d" x="88" y="132" />
        <use href="#d" x="132" y="132" />
        <use href="#d" x="176" y="132" />
        <use href="#d" x="220" y="132" />
        <use href="#d" x="264" y="132" />
      </g>
      <!-- a few filled tiles to imply streak -->
      <g fill="#3A7BD5" opacity="0.6">
        <use href="#d" x="44" y="0" />
        <use href="#d" x="88" y="0" />
        <use href="#d" x="132" y="0" />
        <use href="#d" x="176" y="0" />
        <use href="#d" x="220" y="0" />
      </g>
    </g>
  </g>
</svg>



