<svg xmlns="http://www.w3.org/2000/svg" width="1200" height="720" viewBox="0 0 1200 720" role="img" aria-labelledby="title desc">
  <title>Growbie Mock UI - Milestone Dashboard</title>
  <desc>Neutral mock interface featuring milestone cards and progress indicators.</desc>
  <rect width="1200" height="720" fill="#FFFFFF" />
  <rect x="0" y="0" width="1200" height="720" fill="#F7F7F8" />

  <!-- Header -->
  <rect x="40" y="32" width="240" height="20" rx="10" fill="#3A7BD5" opacity="0.9" />
  <rect x="40" y="64" width="380" height="14" rx="7" fill="#D9DCE3" />

  <!-- Cards grid 3x2 -->
  <g transform="translate(40,120)">
    <!-- card helper -->
    <defs>
      <g id="card">
        <rect width="344" height="200" rx="14" fill="#FFFFFF" stroke="#E1E4EA" />
        <rect x="16" y="16" width="160" height="16" rx="8" fill="#3A7BD5" opacity="0.8" />
        <rect x="16" y="44" width="240" height="12" rx="6" fill="#E7E9EF" />
        <rect x="16" y="64" width="200" height="12" rx="6" fill="#F0F2F6" />
        <!-- progress bar -->
        <rect x="16" y="152" width="312" height="10" rx="5" fill="#E8EBF2" />
        <rect x="16" y="152" width="196" height="10" rx="5" fill="#3A7BD5" opacity="0.6" />
      </g>
    </defs>
    <use href="#card" x="0" y="0" />
    <use href="#card" x="376" y="0" />
    <use href="#card" x="752" y="0" />
    <use href="#card" x="0" y="232" />
    <use href="#card" x="376" y="232" />
    <use href="#card" x="752" y="232" />
  </g>

  <!-- Side panel -->
  <g transform="translate(40,560)">
    <rect width="1120" height="120" rx="14" fill="#FFFFFF" stroke="#E1E4EA" />
    <rect x="16" y="16" width="200" height="16" rx="8" fill="#3A7BD5" opacity="0.8" />
    <rect x="16" y="48" width="420" height="12" rx="6" fill="#E7E9EF" />
    <rect x="16" y="68" width="360" height="12" rx="6" fill="#F0F2F6" />
  </g>
</svg>



