<svg width="320" height="320" viewBox="0 0 320 320" fill="none" xmlns="http://www.w3.org/2000/svg">
  <defs>
    <linearGradient id="bgGradient" x1="0%" y1="0%" x2="0%" y2="100%">
      <stop offset="0%" style="stop-color:#0A84FF;stop-opacity:1" />
      <stop offset="100%" style="stop-color:#0060DF;stop-opacity:1" />
    </linearGradient>
  </defs>
  <rect width="320" height="320" rx="72" fill="url(#bgGradient)"/>
  <g transform="translate(80, 80)">
    <path d="M46.67 140v42.67c0 6.67 4 12 10.67 13.33l45.33 13.33v-60l-45.33 13.33c-6.67 1.33-10.67 6.67-10.67 13.33Z" fill="#fff"/>
    <path d="M109.33 122.67 248 77.33c10.67-4 21.33 4 21.33 14.67v137.33c0 10.67-10.67 18.67-21.33 14.67L109.33 200v-77.33Z" fill="#fff" opacity="0.95"/>
    <path d="M121.33 206.67v29.33c0 21.33 17.33 38.67 38.67 38.67h2.67c8 0 14.67-6.67 14.67-14.67v-24l-56-29.33Z" fill="#fff" opacity="0.95"/>
    <path d="M270.67 138.67c13.33 8 22.67 22.67 22.67 40s-9.33 32-22.67 40" stroke="#fff" stroke-width="22.67" stroke-linecap="round" opacity="0.95"/>
    <path d="M252 150.67c8 5.33 13.33 12 13.33 24s-5.33 18.67-13.33 24" stroke="#fff" stroke-width="22.67" stroke-linecap="round" opacity="0.85"/>
  </g>
</svg>

