<svg xmlns="http://www.w3.org/2000/svg" width="72" height="72" viewBox="0 0 72 72" role="img" aria-labelledby="title desc">
  <title>Tiny Claw Game icon</title>
  <desc>Warm arcade claw holding a star prize.</desc>
  <defs>
    <linearGradient id="tcg-bg" x1="8" y1="6" x2="64" y2="66" gradientUnits="userSpaceOnUse">
      <stop offset="0" stop-color="#fff1e8" />
      <stop offset="1" stop-color="#f7f2ff" />
    </linearGradient>
    <linearGradient id="tcg-claw" x1="25" y1="12" x2="49" y2="48" gradientUnits="userSpaceOnUse">
      <stop offset="0" stop-color="#9b7cf6" />
      <stop offset="1" stop-color="#7357d8" />
    </linearGradient>
  </defs>
  <rect width="72" height="72" rx="18" fill="url(#tcg-bg)" />
  <path d="M36 10v17" stroke="#342f45" stroke-width="4" stroke-linecap="round" />
  <path d="M27 29h18" stroke="#342f45" stroke-width="4" stroke-linecap="round" />
  <path d="M30 31c-7 6-8 15-3 20" fill="none" stroke="url(#tcg-claw)" stroke-width="5" stroke-linecap="round" />
  <path d="M42 31c7 6 8 15 3 20" fill="none" stroke="url(#tcg-claw)" stroke-width="5" stroke-linecap="round" />
  <path d="M36 38l3.6 7.2 8 1.1-5.8 5.6 1.4 7.9-7.2-3.7-7.2 3.7 1.4-7.9-5.8-5.6 8-1.1z" fill="#f29f72" stroke="#342f45" stroke-width="2" stroke-linejoin="round" />
  <circle cx="20" cy="20" r="4" fill="#9b7cf6" opacity="0.35" />
  <circle cx="54" cy="21" r="3" fill="#f29f72" opacity="0.55" />
  <circle cx="55" cy="55" r="4" fill="#6c8edb" opacity="0.32" />
</svg>
